<svg width="87" height="17" viewBox="0 0 87 17" fill="none" xmlns="http://www.w3.org/2000/svg">
<path fill-rule="evenodd" clip-rule="evenodd" d="M7.89085 16.2404L3.05367 5.19675C2.74425 4.50454 2.48295 4.06647 2.26949 3.88252C2.05603 3.69857 1.71365 3.60632 1.24235 3.60632H0.911133V0.779297H9.65778V3.60632H8.92889C8.70799 3.60632 8.59767 3.70229 8.59767 3.89368C8.59767 3.93781 8.62346 4.02606 8.67477 4.15871C8.72634 4.29109 8.78162 4.43117 8.84064 4.57844L10.4087 8.53203H10.6958L12.1536 4.77701C12.3599 4.23234 12.463 3.93037 12.463 3.87135C12.463 3.69485 12.2567 3.60632 11.8444 3.60632H11.4026V0.779297H18.1394V3.58426L17.4546 3.60632C17.1011 3.60632 16.8361 3.68023 16.6596 3.82723C16.3945 4.04813 16.1 4.571 15.776 5.39931L11.5353 16.2404H7.89085Z" fill="white"/>
<path fill-rule="evenodd" clip-rule="evenodd" d="M28.7632 11.8682H34.5722C34.6312 12.3986 34.8115 12.7627 35.1134 12.9616C35.4151 13.1604 35.8607 13.2598 36.4497 13.2598C37.0975 13.2598 37.5614 13.1899 37.8413 13.0501C38.121 12.91 38.2608 12.7077 38.2608 12.4427C38.2608 12.1186 38.0694 11.8315 37.6866 11.5811C37.4511 11.4339 37.1196 11.2866 36.6927 11.1393C34.6017 10.4179 33.372 9.98355 33.0041 9.83628C31.7524 9.32085 30.8321 8.76129 30.243 8.15761C29.5362 7.43616 29.1829 6.5305 29.1829 5.4409C29.1829 4.02725 29.6688 2.90813 30.6407 2.08355C31.9807 0.949812 34.2336 0.382812 37.3992 0.382812C39.7406 0.382812 41.4634 0.728914 42.5679 1.42112C43.7899 2.18669 44.401 3.43818 44.401 5.17587H38.6364C38.651 5.10224 38.6584 5.00654 38.6584 4.88878C38.6584 4.4616 38.5186 4.16361 38.2387 3.99429C37.9591 3.82469 37.5173 3.74016 36.9136 3.74016C36.4423 3.74016 36.0741 3.82124 35.8091 3.98312C35.5441 4.14501 35.4114 4.38797 35.4114 4.71201C35.4114 5.18305 35.728 5.53659 36.3612 5.77211C36.6116 5.86063 36.9798 5.97095 37.4657 6.10359C38.9089 6.47149 39.9761 6.78091 40.6683 7.03105C41.8757 7.47285 42.7739 7.98828 43.363 8.57734C44.0993 9.29879 44.4675 10.2044 44.4675 11.2941C44.4675 12.6487 44.0182 13.7678 43.12 14.6514C41.78 15.9619 39.5492 16.6172 36.4277 16.6172C34.2631 16.6172 32.599 16.3742 31.4358 15.8883C29.6542 15.1373 28.7632 13.7973 28.7632 11.8682Z" fill="white"/>
<path fill-rule="evenodd" clip-rule="evenodd" d="M46.0134 0.780029H53.4347L56.5491 6.83203H56.7479L59.6414 0.780029H67.3497V3.60706H66.6211C66.1939 3.60706 65.9326 3.67697 65.8369 3.81706C65.7412 3.95688 65.6934 4.1815 65.6934 4.49065V12.5305C65.6934 12.8396 65.7226 13.0385 65.7816 13.1267C65.914 13.3184 66.1939 13.4141 66.6211 13.4141H67.3497V16.2411H58.8904V13.4141H59.3761C59.7001 13.4141 59.9322 13.3588 60.072 13.2485C60.2118 13.1379 60.2817 12.8986 60.2817 12.5305V7.27356H60.1494L57.0129 13.8338H54.5612L51.1818 7.27356L51.0271 7.25149V12.5305C51.0271 12.9133 51.0936 13.1562 51.226 13.2594C51.3586 13.3625 51.5941 13.4141 51.9328 13.4141H52.4187V16.2411H46.0134V13.4141H46.7644C47.0884 13.4141 47.3202 13.3588 47.46 13.2485C47.5999 13.1379 47.67 12.8986 47.67 12.5305V4.49065C47.67 4.10787 47.6038 3.86491 47.4712 3.76177C47.3386 3.65863 47.103 3.60706 46.7644 3.60706H46.0134V0.780029Z" fill="white"/>
<path fill-rule="evenodd" clip-rule="evenodd" d="M71.4578 0.780029H80.6904L84.3569 12.0887C84.5337 12.6187 84.6514 12.9281 84.7105 13.0164C84.9016 13.2814 85.2256 13.4141 85.682 13.4141H86.0576V16.2411H77.819V13.4141H78.4596C78.916 13.4141 79.1444 13.2963 79.1444 13.0605C79.1444 13.0164 79.1407 12.9574 79.1332 12.8838C79.1258 12.8104 79.0708 12.6631 78.9676 12.4422H73.6004L73.5342 12.7073C73.5047 12.825 73.4901 12.9207 73.4901 12.9943C73.4901 13.1121 73.5414 13.2115 73.6445 13.2926C73.7476 13.3734 73.939 13.4141 74.2187 13.4141H74.4837V16.2411H68.1226V13.4141H68.5202C69.0062 13.4141 69.3302 13.3293 69.4921 13.1599C69.654 12.9906 69.8456 12.6187 70.0663 12.0446L72.783 4.6451C72.8569 4.48321 72.9119 4.35083 72.9488 4.24769C72.9855 4.14455 73.0041 4.04168 73.0041 3.93854C73.0041 3.82078 72.9451 3.73598 72.8274 3.68441C72.7096 3.63284 72.5695 3.60706 72.4076 3.60706H71.4578V0.780029ZM76.3612 4.77774L74.7711 9.08488H77.8852L76.4939 4.77774H76.3612Z" fill="white"/>
<path fill-rule="evenodd" clip-rule="evenodd" d="M18.9114 16.2411V13.4138H19.5517C19.8904 13.4138 20.1076 13.3439 20.2035 13.2041C20.2992 13.0642 20.3471 12.8396 20.3471 12.5305V12.1589H25.7584V12.5305C25.7584 12.884 25.8063 13.1195 25.902 13.2373C25.9977 13.3551 26.2149 13.4138 26.5535 13.4138H27.2162V16.2411H18.9114ZM20.3471 4.87317V4.49065C20.3471 4.16662 20.3101 3.95316 20.2365 3.85002C20.1187 3.68813 19.8904 3.60706 19.5517 3.60706H18.9114V0.780029H27.2162V3.60706H26.5535C26.2444 3.60706 26.0344 3.66979 25.9241 3.79499C25.8137 3.91993 25.7584 4.152 25.7584 4.49065V4.87317H20.3471Z" fill="white"/>
<path fill-rule="evenodd" clip-rule="evenodd" d="M18.3443 7.43188H27.7836C28.0917 7.43188 28.3437 7.70515 28.3437 8.03876V8.992C28.3437 9.32534 28.0915 9.59861 27.7836 9.59861H18.3443C18.0362 9.59861 17.7842 9.32561 17.7842 8.992V8.03876C17.7842 7.70489 18.0362 7.43188 18.3443 7.43188Z" fill="white"/>
<path fill-rule="evenodd" clip-rule="evenodd" d="M19.2747 5.24268H26.8549C27.1022 5.24268 27.3044 5.46225 27.3044 5.72993V6.4955C27.3044 6.76318 27.1022 6.98249 26.8549 6.98249H19.2747C19.0275 6.98249 18.825 6.76345 18.825 6.4955V5.72993C18.825 5.46198 19.0272 5.24268 19.2747 5.24268Z" fill="white"/>
<path fill-rule="evenodd" clip-rule="evenodd" d="M19.2747 10.051H26.8549C27.1022 10.051 27.3044 10.2703 27.3044 10.5383V11.3036C27.3044 11.5715 27.1022 11.7908 26.8549 11.7908H19.2747C19.0275 11.7908 18.825 11.5718 18.825 11.3036V10.5383C18.825 10.2703 19.0275 10.051 19.2747 10.051Z" fill="white"/>
<path fill-rule="evenodd" clip-rule="evenodd" d="M22.1031 6.00778C22.1087 6.12182 22.1946 6.21353 22.298 6.21353H23.8304C23.9341 6.21353 24.0197 6.12182 24.0253 6.00805C23.8323 5.99502 23.6837 5.91475 23.6837 5.81746C23.6837 5.71113 23.861 5.625 24.0795 5.625C24.2983 5.625 24.4756 5.71113 24.4756 5.81746C24.4756 5.91209 24.3347 5.99077 24.1497 6.00672C24.1446 6.19731 24.0032 6.35176 23.8304 6.35176H22.298C22.1254 6.35176 21.984 6.19731 21.979 6.00672C21.794 5.99077 21.6531 5.91209 21.6531 5.81746C21.6531 5.71113 21.8304 5.625 22.0489 5.625C22.2677 5.625 22.4447 5.71113 22.4447 5.81746C22.4447 5.91475 22.2961 5.99502 22.1031 6.00778Z" fill="white"/>
<path fill-rule="evenodd" clip-rule="evenodd" d="M22.1031 10.9248C22.1087 11.0386 22.1946 11.1303 22.298 11.1303H23.8304C23.9341 11.1303 24.0197 11.0386 24.0253 10.9248C23.8323 10.912 23.6837 10.8315 23.6837 10.7342C23.6837 10.6281 23.861 10.542 24.0795 10.542C24.2983 10.542 24.4756 10.6281 24.4756 10.7342C24.4756 10.8288 24.3347 10.9075 24.1497 10.9234C24.1446 11.1143 24.0032 11.2688 23.8304 11.2688H22.298C22.1254 11.2688 21.984 11.1143 21.979 10.9234C21.794 10.9075 21.6531 10.8288 21.6531 10.7342C21.6531 10.6281 21.8304 10.542 22.0489 10.542C22.2677 10.542 22.4447 10.6281 22.4447 10.7342C22.4447 10.8315 22.2961 10.9118 22.1031 10.9248Z" fill="white"/>
<path fill-rule="evenodd" clip-rule="evenodd" d="M21.8424 8.53684C21.848 8.65088 21.9336 8.74259 22.0372 8.74259H24.0934C24.1971 8.74259 24.2827 8.65088 24.288 8.53711C24.0952 8.52408 23.9467 8.44805 23.9467 8.34651C23.9467 8.2447 24.124 8.15405 24.3425 8.15405C24.5612 8.15405 24.7385 8.24603 24.7385 8.34651C24.7385 8.44672 24.5977 8.51956 24.4124 8.53578C24.4076 8.72637 24.2656 8.88082 24.0934 8.88082H22.0372C21.865 8.88082 21.723 8.72637 21.7183 8.53578C21.533 8.51956 21.3921 8.44672 21.3921 8.34651C21.3921 8.24603 21.5697 8.15405 21.7882 8.15405C22.0067 8.15405 22.184 8.24496 22.184 8.34651C22.184 8.44805 22.0354 8.52408 21.8424 8.53684Z" fill="white"/>
</svg>
