<?xml version="1.0" encoding="utf-8"?><svg xmlns="http://www.w3.org/2000/svg" xmlns:xlink="http://www.w3.org/1999/xlink"><symbol viewBox="0 0 6 11" id="arrow-left" xmlns="http://www.w3.org/2000/svg"><path d="M0 5.1l.667-.637L5.333 0 6 .637 1.333 5.1 6 9.563l-.667.637L.667 5.738 0 5.1z"/></symbol><symbol viewBox="0 0 6 11" id="arrow-right" xmlns="http://www.w3.org/2000/svg"><path d="M6 5.1l-.667-.637L.667 0 0 .637 4.667 5.1 0 9.563l.667.637 4.666-4.462L6 5.1z"/></symbol><symbol viewBox="0 0 15 16" id="close-button" xmlns="http://www.w3.org/2000/svg"><path d="M15 .689L14.318 0 7.5 6.89.682 0 0 .689l6.818 6.89L0 14.469l.682.689L7.5 8.268l6.818 6.89.682-.69-6.818-6.89L15 .689z"/></symbol><symbol viewBox="0 0 16 13" id="open-menu-button" xmlns="http://www.w3.org/2000/svg"><path d="M15.527 0h-15v1h15V0zm0 6h-15v1h15V6zm0 6h-15v1h15v-1z"/></symbol><symbol viewBox="0 0 12 11" id="phone" xmlns="http://www.w3.org/2000/svg"><path d="M11.527 8.688c0-.055 0-.11-.023-.165-.055-.164-.438-.335-.594-.414-.445-.25-.898-.492-1.336-.75C9.371 7.234 9.121 7 8.88 7c-.477 0-1.172 1.414-1.594 1.414-.21 0-.484-.195-.672-.305-1.422-.789-2.406-1.773-3.195-3.195-.11-.187-.305-.46-.305-.672 0-.422 1.414-1.117 1.414-1.594 0-.242-.234-.492-.359-.695-.258-.437-.5-.89-.75-1.336-.078-.156-.25-.539-.414-.594C2.949 0 2.894 0 2.84 0c-.281 0-.828.125-1.086.242-.383.164-.633.602-.828.953-.25.461-.399.93-.399 1.453 0 .727.297 1.383.54 2.047.171.477.382.938.648 1.367.82 1.329 2.422 2.93 3.75 3.75a7.3 7.3 0 001.367.649c.664.242 1.32.539 2.047.539.523 0 .992-.148 1.453-.398.352-.196.79-.446.953-.829.117-.257.242-.804.242-1.085z"/><path d="M11.527 8.688c0-.055 0-.11-.023-.165-.055-.164-.438-.335-.594-.414-.445-.25-.898-.492-1.336-.75C9.371 7.234 9.121 7 8.88 7c-.477 0-1.172 1.414-1.594 1.414-.21 0-.484-.195-.672-.305-1.422-.789-2.406-1.773-3.195-3.195-.11-.187-.305-.46-.305-.672 0-.422 1.414-1.117 1.414-1.594 0-.242-.234-.492-.359-.695-.258-.437-.5-.89-.75-1.336-.078-.156-.25-.539-.414-.594C2.949 0 2.894 0 2.84 0c-.281 0-.828.125-1.086.242-.383.164-.633.602-.828.953-.25.461-.399.93-.399 1.453 0 .727.297 1.383.54 2.047.171.477.382.938.648 1.367.82 1.329 2.422 2.93 3.75 3.75a7.3 7.3 0 001.367.649c.664.242 1.32.539 2.047.539.523 0 .992-.148 1.453-.398.352-.196.79-.446.953-.829.117-.257.242-.804.242-1.085z"/></symbol></svg>