<svg width="113" height="20" viewBox="0 0 113 20" fill="none" xmlns="http://www.w3.org/2000/svg">
<path d="M10.5273 15.3883L16.7073 19.1152L15.0723 12.0863L20.5273 7.35923L13.3364 6.74222L10.5273 0.115234L7.71836 6.74222L0.527344 7.35923L5.98236 12.0863L4.34734 19.1152L10.5273 15.3883Z" fill="#FFD600"/>
<path d="M33.5273 15.3883L39.7073 19.1152L38.0723 12.0863L43.5273 7.35923L36.3364 6.74222L33.5273 0.115234L30.7184 6.74222L23.5273 7.35923L28.9824 12.0863L27.3473 19.1152L33.5273 15.3883Z" fill="#FFD600"/>
<path d="M56.5273 15.3883L62.7073 19.1152L61.0723 12.0863L66.5273 7.35923L59.3364 6.74222L56.5273 0.115234L53.7184 6.74222L46.5273 7.35923L51.9824 12.0863L50.3473 19.1152L56.5273 15.3883Z" fill="#FFD600"/>
<path d="M79.5273 15.3883L85.7073 19.1152L84.0723 12.0863L89.5273 7.35923L82.3364 6.74222L79.5273 0.115234L76.7184 6.74222L69.5273 7.35923L74.9824 12.0863L73.3473 19.1152L79.5273 15.3883Z" fill="#FFD600"/>
<path d="M102.527 15.3883L108.707 19.1152L107.072 12.0863L112.527 7.35923L105.336 6.74222L102.527 0.115234L99.7184 6.74222L92.5273 7.35923L97.9824 12.0863L96.3473 19.1152L102.527 15.3883Z" fill="#A9A9A9"/>
<path d="M99.7184 6.74222L102.527 0.115234V15.3883L96.3473 19.1152L97.9824 12.0863L92.5273 7.35923L99.7184 6.74222Z" fill="#FFD600"/>
</svg>
