<svg width="52" height="37" viewBox="0 0 52 37" fill="none" xmlns="http://www.w3.org/2000/svg">
<path d="M50.4766 6.40507C49.8886 4.22028 48.1661 2.49814 45.9817 1.90982C41.9907 0.817627 26.0268 0.817627 26.0268 0.817627C26.0268 0.817627 10.0633 0.817627 6.07237 1.86819C3.93 2.45612 2.16544 4.22067 1.57752 6.40507C0.527344 10.3956 0.527344 18.6718 0.527344 18.6718C0.527344 18.6718 0.527344 26.9895 1.57752 30.9384C2.16583 33.1228 3.88798 34.8454 6.07276 35.4337C10.1054 36.5259 26.0272 36.5259 26.0272 36.5259C26.0272 36.5259 41.9907 36.5259 45.9817 35.4753C48.1665 34.8874 49.8886 33.1649 50.477 30.9805C51.5271 26.9895 51.5271 18.7138 51.5271 18.7138C51.5271 18.7138 51.5692 10.3956 50.4766 6.40507Z" fill="#FF0000"/>
<path d="M20.9441 26.3176L34.219 18.6718L20.9441 11.026V26.3176Z" fill="white"/>
</svg>
