<svg width="12" height="11" viewBox="0 0 12 11" fill="none" xmlns="http://www.w3.org/2000/svg">
<path d="M11.5273 8.6875C11.5273 8.63281 11.5273 8.57812 11.5039 8.52344C11.4492 8.35937 11.0664 8.1875 10.9102 8.10937C10.4648 7.85937 10.0117 7.61719 9.57422 7.35937C9.37109 7.23437 9.12109 7 8.87891 7C8.40234 7 7.70703 8.41406 7.28516 8.41406C7.07422 8.41406 6.80078 8.21875 6.61328 8.10937C5.19141 7.32031 4.20703 6.33594 3.41797 4.91406C3.30859 4.72656 3.11328 4.45312 3.11328 4.24219C3.11328 3.82031 4.52734 3.125 4.52734 2.64844C4.52734 2.40625 4.29297 2.15625 4.16797 1.95312C3.91016 1.51562 3.66797 1.0625 3.41797 0.617187C3.33984 0.460937 3.16797 0.0781245 3.00391 0.023437C2.94922 -5.96046e-07 2.89453 -5.96046e-07 2.83984 -5.96046e-07C2.55859 -5.96046e-07 2.01172 0.125 1.75391 0.242187C1.37109 0.40625 1.12109 0.84375 0.925781 1.19531C0.675781 1.65625 0.527344 2.125 0.527344 2.64844C0.527344 3.375 0.824219 4.03125 1.06641 4.69531C1.23828 5.17187 1.44922 5.63281 1.71484 6.0625C2.53516 7.39062 4.13672 8.99219 5.46484 9.8125C5.89453 10.0781 6.35547 10.2891 6.83203 10.4609C7.49609 10.7031 8.15234 11 8.87891 11C9.40234 11 9.87109 10.8516 10.332 10.6016C10.6836 10.4062 11.1211 10.1562 11.2852 9.77344C11.4023 9.51562 11.5273 8.96875 11.5273 8.6875Z" fill="#3A3A3A"/>
<path d="M11.5273 8.6875C11.5273 8.63281 11.5273 8.57812 11.5039 8.52344C11.4492 8.35937 11.0664 8.1875 10.9102 8.10937C10.4648 7.85937 10.0117 7.61719 9.57422 7.35937C9.37109 7.23437 9.12109 7 8.87891 7C8.40234 7 7.70703 8.41406 7.28516 8.41406C7.07422 8.41406 6.80078 8.21875 6.61328 8.10937C5.19141 7.32031 4.20703 6.33594 3.41797 4.91406C3.30859 4.72656 3.11328 4.45312 3.11328 4.24219C3.11328 3.82031 4.52734 3.125 4.52734 2.64844C4.52734 2.40625 4.29297 2.15625 4.16797 1.95312C3.91016 1.51562 3.66797 1.0625 3.41797 0.617187C3.33984 0.460937 3.16797 0.0781245 3.00391 0.023437C2.94922 -5.96046e-07 2.89453 -5.96046e-07 2.83984 -5.96046e-07C2.55859 -5.96046e-07 2.01172 0.125 1.75391 0.242187C1.37109 0.40625 1.12109 0.84375 0.925781 1.19531C0.675781 1.65625 0.527344 2.125 0.527344 2.64844C0.527344 3.375 0.824219 4.03125 1.06641 4.69531C1.23828 5.17187 1.44922 5.63281 1.71484 6.0625C2.53516 7.39062 4.13672 8.99219 5.46484 9.8125C5.89453 10.0781 6.35547 10.2891 6.83203 10.4609C7.49609 10.7031 8.15234 11 8.87891 11C9.40234 11 9.87109 10.8516 10.332 10.6016C10.6836 10.4062 11.1211 10.1562 11.2852 9.77344C11.4023 9.51562 11.5273 8.96875 11.5273 8.6875Z" fill="white"/>
</svg>
